HIERARCHY
ROOT Hips
{
	OFFSET 0.00000 0.00000 0.00000
	CHANNELS 6 Xposition Yposition Zposition Yrotation Zrotation Xrotation 
	JOINT Lumbar
	{
		OFFSET 0 0 0
		CHANNELS 3 Zrotation Xrotation Yrotation
		JOINT Neck
		{
			OFFSET 0.00 0.2701 0.00
			CHANNELS 3 Zrotation Xrotation Yrotation
			End Site
			{
				OFFSET 0.00 0.1379 0.00
			}
		}
		JOINT RightShoulder
		{
			OFFSET 0.0119 0.2289 0.1181
			CHANNELS 3 Zrotation Xrotation Yrotation
			JOINT RightElbow
			{
				OFFSET 0.00 -0.1475 0.00
				CHANNELS 2 Zrotation Yrotation
				JOINT RightWrist
				{
					OFFSET 0.00 -0.1605 0.00
					CHANNELS 2 Zrotation Xrotation
					End Site
					{
						OFFSET 0.0040 -0.1068 0.0006
					}
				}
			}
		}
		JOINT LeftShoulder
		{
			OFFSET 0.0119 0.2289 -0.1181
			CHANNELS 3 Zrotation Xrotation Yrotation
			JOINT LeftElbow
			{
				OFFSET 0.00 -0.1475 0.00
				CHANNELS 2 Zrotation Yrotation
				JOINT LeftWrist
				{
					OFFSET 0.00 -0.1605 0.00
					CHANNELS 2 Zrotation Xrotation
					End Site
					{
						OFFSET 0.0040 -0.1068 -0.0006
					}
				}
			}
		}
	}
	JOINT RightHip
	{
		OFFSET 0.0316 -0.0424 0.0458
		CHANNELS 3 Zrotation Xrotation Yrotation
		JOINT RightKnee
		{
			OFFSET 0.00 -0.2438 0.00
			CHANNELS 1 Zrotation
			JOINT RightAnkle
			{
				OFFSET 0.00 -0.2449 0.00
				CHANNELS 3 Zrotation Xrotation Yrotation
				End Site
				{
					OFFSET 0.1237 -0.0542 0.0051
				}
			}
		}
	}
	JOINT LeftHip
	{
		OFFSET 0.0316 -0.0424 -0.0458
		CHANNELS 3 Zrotation Xrotation Yrotation
		JOINT LeftKnee
		{
			OFFSET 0.00 -0.2438 0.00
			CHANNELS 1 Zrotation
			JOINT LeftAnkle
			{
				OFFSET 0.00 -0.2449 0.00
				CHANNELS 3 Zrotation Xrotation Yrotation
				End Site
				{
					OFFSET 0.1237 -0.0542 -0.0051
				}
			}
		}
	}
}
MOTION
Frames: 34
Frame Time: 0.02
-0.00028 -4e-05 5e-05 176.54462 -45.0173 0.24975 58.02006 0.48458 0.2261 -8.46833 -0.62952 -0.12879 9.26856 -103.93278 -90.01137 5.32853 57.98424 -20.28141 1.0058 169.87417 72.99588 54.20775 12.88731 -72.62044 -2.65672 10.87142 47.80584 -1.99322 -5.09468 -19.24977 -9.15916 -5.7663 -3.87078 50.79898 3.4976 3.10939 -24.37261 -9.46654 5.61491 3.77449
-0.00012 -3e-05 8e-05 176.49188 -45.02106 0.23589 58.00947 0.47825 0.25101 -8.49368 -0.63112 -0.12847 9.44752 -103.85285 -90.01137 5.32853 57.97546 -20.38565 1.05074 169.87485 73.00793 54.06505 12.89327 -72.6277 -2.68146 10.91099 47.82692 -2.02892 -5.32214 -19.24918 -9.12671 -5.74864 -3.85847 50.8133 3.51576 3.17434 -24.37218 -9.45532 5.6079 3.77205
4e-05 -3e-05 0.0001 176.43926 -45.02481 0.22205 57.99889 0.47195 0.27586 -8.519 -0.63272 -0.12816 9.62603 -103.7731 -90.01137 5.32853 57.96671 -20.48966 1.09552 169.87553 73.01997 53.92246 12.89928 -72.63497 -2.70617 10.95047 47.84795 -2.06455 -5.54915 -19.24859 -9.09431 -5.73101 -3.84619 50.82759 3.53392 3.23937 -24.37176 -9.44412 5.60089 3.76961
0.00021 -2e-05 0.00013 176.38668 -45.02857 0.20822 57.98833 0.46564 0.3007 -8.54427 -0.63432 -0.12784 9.80447 -103.6934 -90.01137 5.32853 57.95795 -20.5936 1.14032 169.87621 73.03199 53.78013 12.90524 -72.64221 -2.73084 10.98992 47.86897 -2.10015 -5.77596 -19.248 -9.06195 -5.71341 -3.83392 50.84187 3.55204 3.30417 -24.37133 -9.43294 5.59389 3.76718
0.00037 -1e-05 0.00015 176.33399 -45.03234 0.19437 57.97775 0.45931 0.32561 -8.56955 -0.63589 -0.12753 9.98332 -103.61355 -90.01137 5.32853 57.94915 -20.69772 1.1853 169.87689 73.04402 53.63786 12.91112 -72.64944 -2.75551 11.02944 47.89001 -2.13579 -6.00308 -19.24739 -9.02954 -5.69578 -3.82163 50.85618 3.57012 3.36879 -24.37091 -9.42175 5.58689 3.76475
0.00053 -1e-05 0.00018 176.28152 -45.03604 0.18055 57.96718 0.45306 0.35032 -8.59497 -0.63755 -0.12721 10.16109 -103.53402 -90.01138 5.32853 57.94051 -20.80146 1.22964 169.87757 73.05608 53.49463 12.91739 -72.6568 -2.78032 11.06884 47.91101 -2.17139 -6.22983 -19.24686 -8.99717 -5.67815 -3.80937 50.87042 3.58845 3.43469 -24.37049 -9.41052 5.57987 3.76228
0.00069 -0 0.0002 176.22867 -45.03989 0.16668 57.95662 0.44665 0.37541 -8.62006 -0.63905 -0.1269 10.34084 -103.45394 -90.01138 5.32853 57.93155 -20.9059 1.27523 169.87826 73.06805 53.35337 12.9229 -72.66387 -2.80484 11.10845 47.93209 -2.20706 -6.45717 -19.24617 -8.96475 -5.66055 -3.79707 50.88479 3.60627 3.49792 -24.37006 -9.3994 5.57291 3.75989
0.00085 0 0.00023 176.17618 -45.04359 0.15286 57.94603 0.44039 0.40015 -8.64548 -0.64069 -0.12658 10.51878 -103.37435 -90.01137 5.32853 57.92291 -21.00964 1.31967 169.87893 73.08013 53.21054 12.92905 -72.67122 -2.82957 11.14784 47.95309 -2.24264 -6.68381 -19.24563 -8.9324 -5.64294 -3.78481 50.89903 3.62456 3.56363 -24.36964 -9.38816 5.56588 3.75743
0.00102 1e-05 0.00025 176.12404 -45.04715 0.13909 57.93545 0.43431 0.42447 -8.67123 -0.64253 -0.12625 10.69455 -103.2954 -90.0114 5.32853 57.91457 -21.11278 1.36271 169.87961 73.09225 53.06465 12.93623 -72.67887 -2.85481 11.18711 47.97403 -2.27823 -6.91034 -19.24527 -8.90001 -5.62523 -3.77256 50.91316 3.64346 3.6324 -24.36922 -9.37684 5.55879 3.75487
0.00117 2e-05 0.00028 176.06965 -45.05166 0.12499 57.92497 0.4272 0.45121 -8.69486 -0.64328 -0.12598 10.88293 -103.2129 -90.01136 5.32853 57.90422 -21.22014 1.41379 169.88032 73.10386 52.93293 12.93823 -72.68468 -2.87788 11.22749 47.99541 -2.31412 -7.13975 -19.24386 -8.86749 -5.60783 -3.76013 50.92805 3.65894 3.68366 -24.36876 -9.36615 5.55211 3.75286
0.00134 2e-05 0.0003 176.02015 -45.05406 0.11164 57.91418 0.42224 0.47284 -8.72309 -0.6463 -0.12559 11.0446 -103.13778 -90.01137 5.32853 57.8983 -21.3181 1.44792 169.88093 73.11672 52.77357 12.95071 -72.69446 -2.90506 11.26524 48.0158 -2.34915 -7.36159 -19.24465 -8.83546 -5.58992 -3.74815 50.94128 3.68158 3.77176 -24.36842 -9.35405 5.54454 3.74968
0.00153 3e-05 0.00035 175.98287 -45.05146 0.0998 57.90315 0.42344 0.48042 -8.76301 -0.65588 -0.12486 11.13505 -103.08335 -90.01148 5.32852 57.90304 -21.39373 1.43494 169.8812 73.13177 52.51958 12.99568 -72.7163 -2.94753 11.29792 48.03406 -2.38358 -7.57491 -19.25168 -8.80305 -5.56956 -3.7368 50.95045 3.72462 3.96306 -24.36822 -9.33854 5.53486 3.74344
0.00173 4e-05 0.0004 175.95072 -45.0466 0.08881 57.89168 0.42676 0.48287 -8.80772 -0.66766 -0.12401 11.1996 -103.03584 -90.01117 5.32855 57.91251 -21.45898 1.40496 169.88124 73.1485 52.24178 13.05033 -72.74325 -2.99348 11.32752 48.05123 -2.41681 -7.77839 -19.26087 -8.77144 -5.54888 -3.72601 50.95786 3.77473 4.19101 -24.36818 -9.32153 5.52426 3.73601
0.00193 5e-05 0.00044 175.91701 -45.04226 0.07778 57.87999 0.42894 0.48769 -8.85086 -0.67825 -0.12322 11.27297 -102.98538 -90.01165 5.32851 57.9208 -21.52708 1.38329 169.88156 73.16499 51.98652 13.09834 -72.76536 -3.03511 11.35715 48.06851 -2.44943 -7.97833 -19.26893 -8.7406 -5.52904 -3.71536 50.96575 3.82112 4.40074 -24.36817 -9.30487 5.51389 3.72902
0.00212 6e-05 0.00049 175.88004 -45.04007 0.06529 57.87009 0.43186 0.49235 -8.89146 -0.68972 -0.12238 11.35338 -102.93579 -90.01148 5.32851 57.92497 -21.60427 1.35955 169.88163 73.17843 51.67974 13.15653 -72.79257 -3.08797 11.39268 48.08739 -2.48693 -8.21192 -19.27759 -8.705 -5.50629 -3.70303 50.97499 3.86964 4.61694 -24.36772 -9.28955 5.50427 3.72243
0.00232 7e-05 0.00054 175.85108 -45.03284 0.05604 57.85633 0.43373 0.49611 -8.93846 -0.69976 -0.12163 11.41974 -102.88394 -90.01021 5.32866 57.93891 -21.65854 1.33556 169.88155 73.19969 51.47711 13.19495 -72.81731 -3.11868 11.41501 48.1027 -2.51399 -8.37326 -19.28554 -8.67948 -5.48951 -3.69433 50.98103 3.91545 4.82861 -24.36823 -9.27113 5.4929 3.71473
0.0025 8e-05 0.00059 175.843 -45.01228 0.0557 57.83213 0.43213 0.49887 -9.00199 -0.70628 -0.12113 11.43379 -102.83609 -90.01436 5.32822 57.98439 -21.65951 1.31815 169.88258 73.23376 51.54834 13.18338 -72.77233 -3.08321 11.40275 48.10818 -2.5124 -8.33632 -19.29071 -8.68174 -5.48938 -3.69559 50.97854 3.95132 5.01627 -24.37126 -9.24408 5.47673 3.70417
0.00267 8e-05 0.00065 175.84277 -44.98669 0.05859 57.80398 0.42938 0.50088 -9.07168 -0.71107 -0.12075 11.46447 -102.77957 -90.00764 5.32888 58.0428 -21.63244 1.29941 169.8806 73.27777 51.72986 13.1501 -72.73455 -3.02577 11.37676 48.11015 -2.5004 -8.22739 -19.29514 -8.69407 -5.49525 -3.70045 50.97293 3.9843 5.19842 -24.37529 -9.21406 5.45888 3.69254
0.00285 9e-05 0.0007 175.83899 -44.96339 0.05989 57.77763 0.42721 0.50304 -9.1386 -0.71606 -0.12035 11.46737 -102.72413 -90.01081 5.3287 58.08605 -21.61839 1.28062 169.88233 73.32203 51.87244 13.12235 -72.73603 -2.98151 11.35677 48.11388 -2.49321 -8.15197 -19.30008 -8.70171 -5.49831 -3.70361 50.96883 4.01909 5.38496 -24.37893 -9.1857 5.44191 3.68143
0.00302 9e-05 0.00076 175.83544 -44.94009 0.06169 57.75151 0.42496 0.50572 -9.2059 -0.72373 -0.1198 11.44742 -102.69702 -90.02676 5.3268 58.15093 -21.61909 1.26848 169.88479 73.34394 51.96286 13.11387 -72.56491 -2.92521 11.33914 48.11689 -2.48552 -8.07217 -19.30431 -8.70993 -5.50172 -3.7071 50.96425 4.0522 5.56547 -24.38225 -9.15597 5.42435 3.67012
0.00322 9e-05 0.00081 175.83305 -44.91551 0.06325 57.72367 0.42247 0.50736 -9.27342 -0.72522 -0.1196 11.61395 -102.58867 -89.97129 5.33268 58.196 -21.56213 1.23677 169.87168 73.4176 52.19363 13.05921 -72.74643 -2.88707 11.31157 48.1206 -2.47658 -7.98541 -19.3099 -8.71922 -5.5058 -3.71072 50.95999 4.08785 5.75593 -24.38654 -9.12843 5.40769 3.65902
0.00347 9e-05 0.00088 175.83333 -44.88943 0.06305 57.69426 0.42033 0.50507 -9.3429 -0.71144 -0.12024 11.05113 -102.43939 -90.06508 5.3235 57.98027 -21.53648 1.20568 169.89735 73.60615 52.74453 12.88786 -73.97217 -2.92163 11.27289 48.12695 -2.4654 -7.88962 -19.3189 -8.72994 -5.51069 -3.71417 50.95722 4.13269 5.98181 -24.39267 -9.1073 5.39366 3.64835
0.00374 8e-05 0.00094 175.83428 -44.86205 0.06257 57.6626 0.41785 0.50217 -9.41155 -0.6912 -0.1213 10.8453 -102.18137 -90.01125 5.32712 57.77318 -21.42583 1.14919 169.8694 73.85037 53.44307 12.66912 -75.53849 -2.97403 11.22066 48.13419 -2.45361 -7.79077 -19.32946 -8.74119 -5.51599 -3.71758 50.95494 4.17987 6.21639 -24.39988 -9.08854 5.38066 3.63799
0.00401 7e-05 0.00101 175.83394 -44.83481 0.06236 57.63081 0.415 0.50023 -9.47906 -0.67304 -0.12213 11.36799 -101.84586 -89.81468 5.35089 57.70647 -21.22567 1.06334 169.84197 74.0869 54.09748 12.46914 -76.90215 -3.00437 11.16821 48.14112 -2.44298 -7.69824 -19.33956 -8.75161 -5.52087 -3.72081 50.95253 4.22503 6.44256 -24.40691 -9.06895 5.36739 3.62774
0.00426 7e-05 0.00108 175.83784 -44.80946 0.06155 57.60475 0.41425 0.49479 -9.55442 -0.65855 -0.12289 8.38443 -102.01876 -90.5525 5.27226 57.06733 -21.53958 1.13248 170.00926 74.25284 54.64843 12.28249 -78.47043 -3.08449 11.14888 48.14746 -2.42819 -7.58236 -19.34831 -8.76495 -5.52697 -3.72502 50.94957 4.27425 6.68768 -24.41247 -9.04829 5.35325 3.61642
0.00455 5e-05 0.00114 175.83322 -44.7797 0.06203 57.56502 0.40916 0.49725 -9.61164 -0.63477 -0.12419 12.47011 -101.14098 -89.24787 5.40092 57.57674 -20.79545 0.89487 169.64023 74.57464 55.46145 12.05412 -79.69055 -3.07595 11.04914 48.15536 -2.42216 -7.51538 -19.36057 -8.77208 -5.53052 -3.72711 50.948 4.31544 6.89505 -24.42157 -9.0304 5.34118 3.60739
0.00492 -0 0.00117 175.80276 -44.74004 0.06489 57.49844 0.39123 0.51525 -9.63139 -0.58825 -0.12438 38.77894 -97.08498 -82.91221 6.1789 61.65818 -16.86938 -0.3819 168.84772 75.34224 56.82322 11.74972 -79.89076 -2.72502 10.80621 48.16678 -2.43948 -7.58384 -19.37952 -8.76305 -5.52719 -3.72344 50.94958 4.33523 6.99956 -24.43823 -9.02015 5.33472 3.60472
0.00533 -8e-05 0.0012 175.76411 -44.69562 0.0693 57.41611 0.36911 0.54237 -9.63035 -0.53244 -0.12552 71.70943 -92.02397 -74.45431 7.15185 66.82754 -11.93268 -1.93572 167.34685 76.2542 58.44964 11.40129 -79.72539 -2.29937 10.4715 48.17993 -2.46583 -7.70181 -19.40246 -8.74752 -5.52121 -3.7176 50.95274 4.34661 7.06511 -24.45877 -9.01254 5.33029 3.60432
0.00573 -0.00015 0.00123 175.73051 -44.65211 0.07376 57.33442 0.34957 0.56961 -9.63097 -0.47994 -0.12793 99.72711 -87.63243 -66.54791 7.98079 71.22513 -7.64496 -3.22471 165.45423 77.08744 60.06999 11.05329 -79.70951 -1.97222 10.12588 48.19257 -2.48881 -7.79802 -19.42528 -8.73414 -5.51624 -3.71264 50.9555 4.36094 7.14625 -24.47876 -9.00336 5.32485 3.60279
0.00609 -0.0002 0.00126 175.69109 -44.61389 0.07492 57.28078 0.32724 0.57907 -9.66539 -0.43078 -0.12337 135.62696 -82.37212 -60.23586 9.03686 76.76293 -2.55915 -5.07548 166.47195 77.9989 61.29297 10.78065 -79.77076 -1.38302 9.99079 48.20376 -2.50884 -7.89196 -19.44092 -8.72405 -5.51206 -3.7081 50.95671 4.37901 7.23678 -24.49362 -8.99577 5.31983 3.6017
0.00655 -0.00031 0.00129 175.66212 -44.5635 0.08348 57.16421 0.30966 0.62743 -9.62327 -0.37289 -0.13331 156.8865 -78.64246 -50.28154 9.67504 80.22306 1.11046 -5.85376 161.38679 78.75477 63.30475 10.34826 -79.58643 -1.30934 9.40954 48.21873 -2.53694 -8.00119 -19.47256 -8.70572 -5.50567 -3.70222 50.96182 4.3873 7.2982 -24.52013 -8.98554 5.31442 3.60022
0.00723 -0.0006 0.00133 175.66177 -44.48094 0.11056 56.88396 0.30674 0.78346 -9.38435 -0.29043 -0.18501 134.28141 -79.74401 -29.21423 9.03409 77.34111 0.56104 -3.32154 138.53319 79.26835 68.31105 9.42578 -78.75684 -2.78356 7.49742 48.24078 -2.58724 -8.15188 -19.54616 -8.66482 -5.49305 -3.69265 50.97498 4.37039 7.29015 -24.57733 -8.96671 5.30725 3.59708
0.00802 -0.00095 0.00138 175.67271 -44.38632 0.14529 56.53937 0.30858 0.97779 -9.06673 -0.2001 -0.25092 97.04396 -82.35466 -4.83174 7.98064 72.39165 -1.43588 0.25055 109.76541 79.57759 73.95579 8.35581 -77.70131 -4.75939 5.1612 48.26722 -2.64501 -8.31453 -19.6359 -8.61611 -5.4784 -3.68187 50.9926 4.34398 7.25376 -24.64617 -8.94528 5.29964 3.59347
0.00878 -0.00127 0.00142 175.67984 -44.29691 0.1775 56.22062 0.30797 1.15305 -8.77973 -0.11512 -0.30903 67.70543 -84.03926 16.97713 7.16626 68.61372 -2.73253 3.15801 84.42076 79.83522 78.70546 7.39229 -76.78493 -6.4358 3.10003 48.29338 -2.69792 -8.46382 -19.71909 -8.57193 -5.4652 -3.67202 51.00951 4.32208 7.22955 -24.71008 -8.92539 5.29232 3.59011
